<svg xmlns="http://www.w3.org/2000/svg" viewBox="0 0 460 246" role="img" aria-label="Top Languages">
  <defs>
    <linearGradient id="bg" x1="0%" y1="0%" x2="100%" y2="100%">
      <stop offset="0%" style="stop-color:#0a0e27;stop-opacity:1" />
      <stop offset="100%" style="stop-color:#1a1a3e;stop-opacity:1" />
    </linearGradient>
  </defs>
  <rect width="460" height="246" fill="url(#bg)" rx="8" />
  <text x="24" y="38" font-family="'Segoe UI', system-ui, -apple-system, sans-serif" font-size="16" font-weight="600" fill="#7b61ff" letter-spacing="1">Top Languages</text>
  <line x1="24" y1="50" x2="436" y2="50" stroke="#5a6380" stroke-width="1" opacity="0.5" />
  <text x="24" y="84" font-family="'Segoe UI', system-ui, -apple-system, sans-serif" font-size="12" fill="#8892b0">TypeScript</text>
  <rect x="150" y="76" width="220" height="8" rx="4" fill="#141832" />
  <rect x="150" y="76" width="112" height="8" rx="4" fill="#3178c6" />
  <text x="436" y="84" text-anchor="end" font-family="'Segoe UI', system-ui, -apple-system, sans-serif" font-size="12" font-weight="600" fill="#e0e6ff">51.1%</text>
  <text x="24" y="124" font-family="'Segoe UI', system-ui, -apple-system, sans-serif" font-size="12" fill="#8892b0">Python</text>
  <rect x="150" y="116" width="220" height="8" rx="4" fill="#141832" />
  <rect x="150" y="116" width="75" height="8" rx="4" fill="#3572A5" />
  <text x="436" y="124" text-anchor="end" font-family="'Segoe UI', system-ui, -apple-system, sans-serif" font-size="12" font-weight="600" fill="#e0e6ff">34.3%</text>
  <text x="24" y="164" font-family="'Segoe UI', system-ui, -apple-system, sans-serif" font-size="12" fill="#8892b0">CSS</text>
  <rect x="150" y="156" width="220" height="8" rx="4" fill="#141832" />
  <rect x="150" y="156" width="13" height="8" rx="4" fill="#563d7c" />
  <text x="436" y="164" text-anchor="end" font-family="'Segoe UI', system-ui, -apple-system, sans-serif" font-size="12" font-weight="600" fill="#e0e6ff">6.1%</text>
  <text x="24" y="204" font-family="'Segoe UI', system-ui, -apple-system, sans-serif" font-size="12" fill="#8892b0">HTML</text>
  <rect x="150" y="196" width="220" height="8" rx="4" fill="#141832" />
  <rect x="150" y="196" width="6" height="8" rx="4" fill="#e34c26" />
  <text x="436" y="204" text-anchor="end" font-family="'Segoe UI', system-ui, -apple-system, sans-serif" font-size="12" font-weight="600" fill="#e0e6ff">2.7%</text>
  <text x="24" y="244" font-family="'Segoe UI', system-ui, -apple-system, sans-serif" font-size="12" fill="#8892b0">JavaScript</text>
  <rect x="150" y="236" width="220" height="8" rx="4" fill="#141832" />
  <rect x="150" y="236" width="6" height="8" rx="4" fill="#f1e05a" />
  <text x="436" y="244" text-anchor="end" font-family="'Segoe UI', system-ui, -apple-system, sans-serif" font-size="12" font-weight="600" fill="#e0e6ff">2.6%</text>
</svg>
